TITLE ""
FILE "1Q_t_1878-1887.mp3" MP3
  TRACK 01 AUDIO
    TITLE "1Q_t_1878-1887_01"
    INDEX 01 00:00:00
  TRACK 02 AUDIO
    TITLE "1Q_t_1878-1887_02"
    INDEX 01 00:00:16
  TRACK 03 AUDIO
    TITLE "1Q_t_1878-1887_03"
    INDEX 01 00:01:45
  TRACK 04 AUDIO
    TITLE "1Q_t_1878-1887_04"
    INDEX 01 00:01:55
  TRACK 05 AUDIO
    TITLE "1Q_t_1878-1887_05"
    INDEX 01 00:03:73
  TRACK 06 AUDIO
    TITLE "1Q_t_1878-1887_06"
    INDEX 01 00:04:10
  TRACK 07 AUDIO
    TITLE "1Q_t_1878-1887_07"
    INDEX 01 00:08:69
  TRACK 08 AUDIO
    TITLE "1Q_t_1878-1887_08"
    INDEX 01 00:09:41
  TRACK 09 AUDIO
    TITLE "1Q_t_1878-1887_09"
    INDEX 01 00:10:75
  TRACK 10 AUDIO
    TITLE "1Q_t_1878-1887_10"
    INDEX 01 00:11:10
  TRACK 11 AUDIO
    TITLE "1Q_t_1878-1887_11"
    INDEX 01 00:13:72
  TRACK 12 AUDIO
    TITLE "1Q_t_1878-1887_12"
    INDEX 01 00:14:07
  TRACK 13 AUDIO
    TITLE "1Q_t_1878-1887_13"
    INDEX 01 00:19:06
  TRACK 14 AUDIO
    TITLE "1Q_t_1878-1887_14"
    INDEX 01 00:19:53
  TRACK 15 AUDIO
    TITLE "1Q_t_1878-1887_15"
    INDEX 01 00:21:26
  TRACK 16 AUDIO
    TITLE "1Q_t_1878-1887_16"
    INDEX 01 00:21:36
  TRACK 17 AUDIO
    TITLE "1Q_t_1878-1887_17"
    INDEX 01 00:23:35
  TRACK 18 AUDIO
    TITLE "1Q_t_1878-1887_18"
    INDEX 01 00:23:43
  TRACK 19 AUDIO
    TITLE "1Q_t_1878-1887_19"
    INDEX 01 00:29:28
  TRACK 20 AUDIO
    TITLE "1Q_t_1878-1887_20"
    INDEX 01 00:30:09
  TRACK 21 AUDIO
    TITLE "1Q_t_1878-1887_21"
    INDEX 01 00:31:30
  TRACK 22 AUDIO
    TITLE "1Q_t_1878-1887_22"
    INDEX 01 00:31:40
  TRACK 23 AUDIO
    TITLE "1Q_t_1878-1887_23"
    INDEX 01 00:33:37
  TRACK 24 AUDIO
    TITLE "1Q_t_1878-1887_24"
    INDEX 01 00:33:45
  TRACK 25 AUDIO
    TITLE "1Q_t_1878-1887_25"
    INDEX 01 00:38:50
  TRACK 26 AUDIO
    TITLE "1Q_t_1878-1887_26"
    INDEX 01 00:39:28
  TRACK 27 AUDIO
    TITLE "1Q_t_1878-1887_27"
    INDEX 01 00:40:27
  TRACK 28 AUDIO
    TITLE "1Q_t_1878-1887_28"
    INDEX 01 00:40:37
  TRACK 29 AUDIO
    TITLE "1Q_t_1878-1887_29"
    INDEX 01 00:41:70
  TRACK 30 AUDIO
    TITLE "1Q_t_1878-1887_30"
    INDEX 01 00:42:05
  TRACK 31 AUDIO
    TITLE "1Q_t_1878-1887_31"
    INDEX 01 00:48:01
  TRACK 32 AUDIO
    TITLE "1Q_t_1878-1887_32"
    INDEX 01 00:48:49
  TRACK 33 AUDIO
    TITLE "1Q_t_1878-1887_33"
    INDEX 01 00:49:70
  TRACK 34 AUDIO
    TITLE "1Q_t_1878-1887_34"
    INDEX 01 00:50:02
  TRACK 35 AUDIO
    TITLE "1Q_t_1878-1887_35"
    INDEX 01 00:53:03
  TRACK 36 AUDIO
    TITLE "1Q_t_1878-1887_36"
    INDEX 01 00:53:12
  TRACK 37 AUDIO
    TITLE "1Q_t_1878-1887_37"
    INDEX 01 00:57:30
  TRACK 38 AUDIO
    TITLE "1Q_t_1878-1887_38"
    INDEX 01 00:58:04
  TRACK 39 AUDIO
    TITLE "1Q_t_1878-1887_39"
    INDEX 01 00:59:13
  TRACK 40 AUDIO
    TITLE "1Q_t_1878-1887_40"
    INDEX 01 00:59:23
  TRACK 41 AUDIO
    TITLE "1Q_t_1878-1887_41"
    INDEX 01 01:01:57
  TRACK 42 AUDIO
    TITLE "1Q_t_1878-1887_42"
    INDEX 01 01:01:65
  TRACK 43 AUDIO
    TITLE "1Q_t_1878-1887_43"
    INDEX 01 01:07:50
  TRACK 44 AUDIO
    TITLE "1Q_t_1878-1887_44"
    INDEX 01 01:08:22
  TRACK 45 AUDIO
    TITLE "1Q_t_1878-1887_45"
    INDEX 01 01:09:49
  TRACK 46 AUDIO
    TITLE "1Q_t_1878-1887_46"
    INDEX 01 01:09:58
  TRACK 47 AUDIO
    TITLE "1Q_t_1878-1887_47"
    INDEX 01 01:11:20
  TRACK 48 AUDIO
    TITLE "1Q_t_1878-1887_48"
    INDEX 01 01:11:32
  TRACK 49 AUDIO
    TITLE "1Q_t_1878-1887_49"
    INDEX 01 01:14:71
  TRACK 50 AUDIO
    TITLE "1Q_t_1878-1887_50"
    INDEX 01 01:15:47
  TRACK 51 AUDIO
    TITLE "1Q_t_1878-1887_51"
    INDEX 01 01:16:68
  TRACK 52 AUDIO
    TITLE "1Q_t_1878-1887_52"
    INDEX 01 01:17:05
  TRACK 53 AUDIO
    TITLE "1Q_t_1878-1887_53"
    INDEX 01 01:19:41
  TRACK 54 AUDIO
    TITLE "1Q_t_1878-1887_54"
    INDEX 01 01:19:49
  TRACK 55 AUDIO
    TITLE "1Q_t_1878-1887_55"
    INDEX 01 01:23:35
  TRACK 56 AUDIO
    TITLE "1Q_t_1878-1887_56"
    INDEX 01 01:24:09
  TRACK 57 AUDIO
    TITLE "1Q_t_1878-1887_57"
    INDEX 01 01:25:34
  TRACK 58 AUDIO
    TITLE "1Q_t_1878-1887_58"
    INDEX 01 01:25:44
  TRACK 59 AUDIO
    TITLE "1Q_t_1878-1887_59"
    INDEX 01 01:26:71
  TRACK 60 AUDIO
    TITLE "1Q_t_1878-1887_60"
    INDEX 01 01:27:04
  TRACK 61 AUDIO
    TITLE "1Q_t_1878-1887_61"
    INDEX 01 01:30:66
